<mxfile host="Electron" modified="2023-11-08T04:51:27.902Z" agent="Mozilla/5.0 (Windows NT 10.0; Win64; x64) AppleWebKit/537.36 (KHTML, like Gecko) draw.io/21.8.2 Chrome/114.0.5735.289 Electron/25.8.1 Safari/537.36" etag="TYm_gGJwVA-cZTbnNBQe" version="21.8.2" type="device">
  <diagram id="C5RBs43oDa-KdzZeNtuy" name="Page-1">
    <mxGraphModel dx="874" dy="1064" grid="1" gridSize="10" guides="1" tooltips="1" connect="1" arrows="1" fold="1" page="1" pageScale="1" pageWidth="827" pageHeight="1169" math="0" shadow="0">
      <root>
        <mxCell id="WIyWlLk6GJQsqaUBKTNV-0" />
        <mxCell id="WIyWlLk6GJQsqaUBKTNV-1" parent="WIyWlLk6GJQsqaUBKTNV-0" />
        <mxCell id="yujznxd2drrsmA3hHYga-4" value="" style="edgeStyle=orthogonalEdgeStyle;rounded=0;orthogonalLoop=1;jettySize=auto;html=1;" edge="1" parent="WIyWlLk6GJQsqaUBKTNV-1" source="yujznxd2drrsmA3hHYga-0" target="yujznxd2drrsmA3hHYga-3">
          <mxGeometry relative="1" as="geometry" />
        </mxCell>
        <mxCell id="yujznxd2drrsmA3hHYga-0" value="Start" style="ellipse;whiteSpace=wrap;html=1;" vertex="1" parent="WIyWlLk6GJQsqaUBKTNV-1">
          <mxGeometry x="230" y="60" width="120" height="80" as="geometry" />
        </mxCell>
        <mxCell id="yujznxd2drrsmA3hHYga-6" value="" style="edgeStyle=orthogonalEdgeStyle;rounded=0;orthogonalLoop=1;jettySize=auto;html=1;" edge="1" parent="WIyWlLk6GJQsqaUBKTNV-1" source="yujznxd2drrsmA3hHYga-3" target="yujznxd2drrsmA3hHYga-5">
          <mxGeometry relative="1" as="geometry" />
        </mxCell>
        <mxCell id="yujznxd2drrsmA3hHYga-3" value="int panjang" style="shape=hexagon;perimeter=hexagonPerimeter2;whiteSpace=wrap;html=1;fixedSize=1;" vertex="1" parent="WIyWlLk6GJQsqaUBKTNV-1">
          <mxGeometry x="230" y="170" width="120" height="80" as="geometry" />
        </mxCell>
        <mxCell id="yujznxd2drrsmA3hHYga-8" value="" style="edgeStyle=orthogonalEdgeStyle;rounded=0;orthogonalLoop=1;jettySize=auto;html=1;" edge="1" parent="WIyWlLk6GJQsqaUBKTNV-1" source="yujznxd2drrsmA3hHYga-5" target="yujznxd2drrsmA3hHYga-7">
          <mxGeometry relative="1" as="geometry" />
        </mxCell>
        <mxCell id="yujznxd2drrsmA3hHYga-5" value="panjang" style="shape=parallelogram;perimeter=parallelogramPerimeter;whiteSpace=wrap;html=1;fixedSize=1;" vertex="1" parent="WIyWlLk6GJQsqaUBKTNV-1">
          <mxGeometry x="230" y="290" width="120" height="60" as="geometry" />
        </mxCell>
        <mxCell id="yujznxd2drrsmA3hHYga-10" value="" style="edgeStyle=orthogonalEdgeStyle;rounded=0;orthogonalLoop=1;jettySize=auto;html=1;" edge="1" parent="WIyWlLk6GJQsqaUBKTNV-1" source="yujznxd2drrsmA3hHYga-7" target="yujznxd2drrsmA3hHYga-9">
          <mxGeometry relative="1" as="geometry" />
        </mxCell>
        <mxCell id="yujznxd2drrsmA3hHYga-7" value="int [] setA,&lt;br&gt;int [] setB,&amp;nbsp;&lt;br&gt;int count" style="shape=hexagon;perimeter=hexagonPerimeter2;whiteSpace=wrap;html=1;fixedSize=1;" vertex="1" parent="WIyWlLk6GJQsqaUBKTNV-1">
          <mxGeometry x="190" y="390" width="200" height="90" as="geometry" />
        </mxCell>
        <mxCell id="yujznxd2drrsmA3hHYga-12" value="" style="edgeStyle=orthogonalEdgeStyle;rounded=0;orthogonalLoop=1;jettySize=auto;html=1;" edge="1" parent="WIyWlLk6GJQsqaUBKTNV-1" source="yujznxd2drrsmA3hHYga-9" target="yujznxd2drrsmA3hHYga-11">
          <mxGeometry relative="1" as="geometry" />
        </mxCell>
        <mxCell id="yujznxd2drrsmA3hHYga-9" value="setA [] = int[panjang]&lt;br&gt;setB [] = int[panjang]" style="whiteSpace=wrap;html=1;" vertex="1" parent="WIyWlLk6GJQsqaUBKTNV-1">
          <mxGeometry x="200" y="510" width="180" height="80" as="geometry" />
        </mxCell>
        <mxCell id="yujznxd2drrsmA3hHYga-14" value="" style="edgeStyle=orthogonalEdgeStyle;rounded=0;orthogonalLoop=1;jettySize=auto;html=1;" edge="1" parent="WIyWlLk6GJQsqaUBKTNV-1" source="yujznxd2drrsmA3hHYga-11" target="yujznxd2drrsmA3hHYga-13">
          <mxGeometry relative="1" as="geometry" />
        </mxCell>
        <mxCell id="yujznxd2drrsmA3hHYga-11" value="" style="ellipse;whiteSpace=wrap;html=1;aspect=fixed;" vertex="1" parent="WIyWlLk6GJQsqaUBKTNV-1">
          <mxGeometry x="265" y="631" width="50" height="50" as="geometry" />
        </mxCell>
        <mxCell id="yujznxd2drrsmA3hHYga-16" value="" style="edgeStyle=orthogonalEdgeStyle;rounded=0;orthogonalLoop=1;jettySize=auto;html=1;" edge="1" parent="WIyWlLk6GJQsqaUBKTNV-1" source="yujznxd2drrsmA3hHYga-13" target="yujznxd2drrsmA3hHYga-15">
          <mxGeometry relative="1" as="geometry" />
        </mxCell>
        <mxCell id="yujznxd2drrsmA3hHYga-13" value="i = 0" style="whiteSpace=wrap;html=1;" vertex="1" parent="WIyWlLk6GJQsqaUBKTNV-1">
          <mxGeometry x="250" y="721" width="80" height="45" as="geometry" />
        </mxCell>
        <mxCell id="yujznxd2drrsmA3hHYga-20" value="" style="edgeStyle=orthogonalEdgeStyle;rounded=0;orthogonalLoop=1;jettySize=auto;html=1;" edge="1" parent="WIyWlLk6GJQsqaUBKTNV-1" source="yujznxd2drrsmA3hHYga-15" target="yujznxd2drrsmA3hHYga-19">
          <mxGeometry relative="1" as="geometry" />
        </mxCell>
        <mxCell id="yujznxd2drrsmA3hHYga-34" value="True" style="edgeLabel;html=1;align=center;verticalAlign=middle;resizable=0;points=[];" vertex="1" connectable="0" parent="yujznxd2drrsmA3hHYga-20">
          <mxGeometry x="-0.64" relative="1" as="geometry">
            <mxPoint as="offset" />
          </mxGeometry>
        </mxCell>
        <mxCell id="yujznxd2drrsmA3hHYga-35" style="edgeStyle=orthogonalEdgeStyle;rounded=0;orthogonalLoop=1;jettySize=auto;html=1;entryX=0;entryY=0.5;entryDx=0;entryDy=0;" edge="1" parent="WIyWlLk6GJQsqaUBKTNV-1" source="yujznxd2drrsmA3hHYga-15" target="yujznxd2drrsmA3hHYga-25">
          <mxGeometry relative="1" as="geometry">
            <Array as="points">
              <mxPoint x="170" y="841" />
              <mxPoint x="170" y="1005" />
            </Array>
          </mxGeometry>
        </mxCell>
        <mxCell id="yujznxd2drrsmA3hHYga-36" value="False" style="edgeLabel;html=1;align=center;verticalAlign=middle;resizable=0;points=[];" vertex="1" connectable="0" parent="yujznxd2drrsmA3hHYga-35">
          <mxGeometry x="-0.8316" y="3" relative="1" as="geometry">
            <mxPoint as="offset" />
          </mxGeometry>
        </mxCell>
        <mxCell id="yujznxd2drrsmA3hHYga-15" value="i &amp;lt; setA.length" style="rhombus;whiteSpace=wrap;html=1;" vertex="1" parent="WIyWlLk6GJQsqaUBKTNV-1">
          <mxGeometry x="230" y="801" width="120" height="80" as="geometry" />
        </mxCell>
        <mxCell id="yujznxd2drrsmA3hHYga-22" value="" style="edgeStyle=orthogonalEdgeStyle;rounded=0;orthogonalLoop=1;jettySize=auto;html=1;" edge="1" parent="WIyWlLk6GJQsqaUBKTNV-1" source="yujznxd2drrsmA3hHYga-19" target="yujznxd2drrsmA3hHYga-21">
          <mxGeometry relative="1" as="geometry" />
        </mxCell>
        <mxCell id="yujznxd2drrsmA3hHYga-19" value="setA[i]&amp;nbsp;" style="shape=parallelogram;perimeter=parallelogramPerimeter;whiteSpace=wrap;html=1;fixedSize=1;" vertex="1" parent="WIyWlLk6GJQsqaUBKTNV-1">
          <mxGeometry x="230" y="911" width="120" height="60" as="geometry" />
        </mxCell>
        <mxCell id="yujznxd2drrsmA3hHYga-23" style="edgeStyle=orthogonalEdgeStyle;rounded=0;orthogonalLoop=1;jettySize=auto;html=1;entryX=1;entryY=0.5;entryDx=0;entryDy=0;" edge="1" parent="WIyWlLk6GJQsqaUBKTNV-1" source="yujznxd2drrsmA3hHYga-21" target="yujznxd2drrsmA3hHYga-11">
          <mxGeometry relative="1" as="geometry">
            <mxPoint x="320" y="661" as="targetPoint" />
            <Array as="points">
              <mxPoint x="430" y="656" />
            </Array>
          </mxGeometry>
        </mxCell>
        <mxCell id="yujznxd2drrsmA3hHYga-21" value="i++" style="whiteSpace=wrap;html=1;" vertex="1" parent="WIyWlLk6GJQsqaUBKTNV-1">
          <mxGeometry x="390" y="916" width="80" height="50" as="geometry" />
        </mxCell>
        <mxCell id="yujznxd2drrsmA3hHYga-24" value="" style="edgeStyle=orthogonalEdgeStyle;rounded=0;orthogonalLoop=1;jettySize=auto;html=1;" edge="1" parent="WIyWlLk6GJQsqaUBKTNV-1" source="yujznxd2drrsmA3hHYga-25" target="yujznxd2drrsmA3hHYga-27">
          <mxGeometry relative="1" as="geometry" />
        </mxCell>
        <mxCell id="yujznxd2drrsmA3hHYga-25" value="" style="ellipse;whiteSpace=wrap;html=1;aspect=fixed;" vertex="1" parent="WIyWlLk6GJQsqaUBKTNV-1">
          <mxGeometry x="265" y="980" width="50" height="50" as="geometry" />
        </mxCell>
        <mxCell id="yujznxd2drrsmA3hHYga-26" value="" style="edgeStyle=orthogonalEdgeStyle;rounded=0;orthogonalLoop=1;jettySize=auto;html=1;" edge="1" parent="WIyWlLk6GJQsqaUBKTNV-1" source="yujznxd2drrsmA3hHYga-27" target="yujznxd2drrsmA3hHYga-29">
          <mxGeometry relative="1" as="geometry" />
        </mxCell>
        <mxCell id="yujznxd2drrsmA3hHYga-27" value="i = 0" style="whiteSpace=wrap;html=1;" vertex="1" parent="WIyWlLk6GJQsqaUBKTNV-1">
          <mxGeometry x="250" y="1070" width="80" height="45" as="geometry" />
        </mxCell>
        <mxCell id="yujznxd2drrsmA3hHYga-28" value="" style="edgeStyle=orthogonalEdgeStyle;rounded=0;orthogonalLoop=1;jettySize=auto;html=1;" edge="1" parent="WIyWlLk6GJQsqaUBKTNV-1" source="yujznxd2drrsmA3hHYga-29" target="yujznxd2drrsmA3hHYga-31">
          <mxGeometry relative="1" as="geometry" />
        </mxCell>
        <mxCell id="yujznxd2drrsmA3hHYga-39" value="True" style="edgeLabel;html=1;align=center;verticalAlign=middle;resizable=0;points=[];" vertex="1" connectable="0" parent="yujznxd2drrsmA3hHYga-28">
          <mxGeometry x="-0.6571" relative="1" as="geometry">
            <mxPoint as="offset" />
          </mxGeometry>
        </mxCell>
        <mxCell id="yujznxd2drrsmA3hHYga-43" style="edgeStyle=orthogonalEdgeStyle;rounded=0;orthogonalLoop=1;jettySize=auto;html=1;entryX=0;entryY=0.5;entryDx=0;entryDy=0;" edge="1" parent="WIyWlLk6GJQsqaUBKTNV-1" source="yujznxd2drrsmA3hHYga-29" target="yujznxd2drrsmA3hHYga-42">
          <mxGeometry relative="1" as="geometry">
            <Array as="points">
              <mxPoint x="180" y="1190" />
              <mxPoint x="180" y="1370" />
            </Array>
          </mxGeometry>
        </mxCell>
        <mxCell id="yujznxd2drrsmA3hHYga-44" value="False" style="edgeLabel;html=1;align=center;verticalAlign=middle;resizable=0;points=[];" vertex="1" connectable="0" parent="yujznxd2drrsmA3hHYga-43">
          <mxGeometry x="-0.852" relative="1" as="geometry">
            <mxPoint as="offset" />
          </mxGeometry>
        </mxCell>
        <mxCell id="yujznxd2drrsmA3hHYga-29" value="i &amp;lt; setB.length" style="rhombus;whiteSpace=wrap;html=1;" vertex="1" parent="WIyWlLk6GJQsqaUBKTNV-1">
          <mxGeometry x="230" y="1150" width="120" height="80" as="geometry" />
        </mxCell>
        <mxCell id="yujznxd2drrsmA3hHYga-30" value="" style="edgeStyle=orthogonalEdgeStyle;rounded=0;orthogonalLoop=1;jettySize=auto;html=1;" edge="1" parent="WIyWlLk6GJQsqaUBKTNV-1" source="yujznxd2drrsmA3hHYga-31" target="yujznxd2drrsmA3hHYga-33">
          <mxGeometry relative="1" as="geometry" />
        </mxCell>
        <mxCell id="yujznxd2drrsmA3hHYga-31" value="setB[i]&amp;nbsp;" style="shape=parallelogram;perimeter=parallelogramPerimeter;whiteSpace=wrap;html=1;fixedSize=1;" vertex="1" parent="WIyWlLk6GJQsqaUBKTNV-1">
          <mxGeometry x="230" y="1260" width="120" height="60" as="geometry" />
        </mxCell>
        <mxCell id="yujznxd2drrsmA3hHYga-32" style="edgeStyle=orthogonalEdgeStyle;rounded=0;orthogonalLoop=1;jettySize=auto;html=1;entryX=1;entryY=0.5;entryDx=0;entryDy=0;" edge="1" parent="WIyWlLk6GJQsqaUBKTNV-1" source="yujznxd2drrsmA3hHYga-33" target="yujznxd2drrsmA3hHYga-25">
          <mxGeometry relative="1" as="geometry">
            <mxPoint x="320" y="1010" as="targetPoint" />
            <Array as="points">
              <mxPoint x="430" y="1005" />
            </Array>
          </mxGeometry>
        </mxCell>
        <mxCell id="yujznxd2drrsmA3hHYga-33" value="i++" style="whiteSpace=wrap;html=1;" vertex="1" parent="WIyWlLk6GJQsqaUBKTNV-1">
          <mxGeometry x="390" y="1265" width="80" height="50" as="geometry" />
        </mxCell>
        <mxCell id="yujznxd2drrsmA3hHYga-46" value="" style="edgeStyle=orthogonalEdgeStyle;rounded=0;orthogonalLoop=1;jettySize=auto;html=1;" edge="1" parent="WIyWlLk6GJQsqaUBKTNV-1" source="yujznxd2drrsmA3hHYga-42" target="yujznxd2drrsmA3hHYga-45">
          <mxGeometry relative="1" as="geometry" />
        </mxCell>
        <mxCell id="yujznxd2drrsmA3hHYga-42" value="count = 0" style="rounded=0;whiteSpace=wrap;html=1;" vertex="1" parent="WIyWlLk6GJQsqaUBKTNV-1">
          <mxGeometry x="255" y="1350" width="70" height="40" as="geometry" />
        </mxCell>
        <mxCell id="yujznxd2drrsmA3hHYga-48" style="edgeStyle=orthogonalEdgeStyle;rounded=0;orthogonalLoop=1;jettySize=auto;html=1;entryX=0;entryY=0.5;entryDx=0;entryDy=0;" edge="1" parent="WIyWlLk6GJQsqaUBKTNV-1" source="yujznxd2drrsmA3hHYga-45" target="yujznxd2drrsmA3hHYga-47">
          <mxGeometry relative="1" as="geometry">
            <Array as="points">
              <mxPoint x="530" y="1445" />
              <mxPoint x="530" y="115" />
            </Array>
          </mxGeometry>
        </mxCell>
        <mxCell id="yujznxd2drrsmA3hHYga-45" value="" style="ellipse;whiteSpace=wrap;html=1;aspect=fixed;" vertex="1" parent="WIyWlLk6GJQsqaUBKTNV-1">
          <mxGeometry x="265" y="1420" width="50" height="50" as="geometry" />
        </mxCell>
        <mxCell id="yujznxd2drrsmA3hHYga-50" value="" style="edgeStyle=orthogonalEdgeStyle;rounded=0;orthogonalLoop=1;jettySize=auto;html=1;" edge="1" parent="WIyWlLk6GJQsqaUBKTNV-1" source="yujznxd2drrsmA3hHYga-47" target="yujznxd2drrsmA3hHYga-49">
          <mxGeometry relative="1" as="geometry" />
        </mxCell>
        <mxCell id="yujznxd2drrsmA3hHYga-47" value="" style="ellipse;whiteSpace=wrap;html=1;aspect=fixed;" vertex="1" parent="WIyWlLk6GJQsqaUBKTNV-1">
          <mxGeometry x="710" y="90" width="50" height="50" as="geometry" />
        </mxCell>
        <mxCell id="yujznxd2drrsmA3hHYga-52" value="" style="edgeStyle=orthogonalEdgeStyle;rounded=0;orthogonalLoop=1;jettySize=auto;html=1;" edge="1" parent="WIyWlLk6GJQsqaUBKTNV-1" source="yujznxd2drrsmA3hHYga-49" target="yujznxd2drrsmA3hHYga-51">
          <mxGeometry relative="1" as="geometry" />
        </mxCell>
        <mxCell id="yujznxd2drrsmA3hHYga-49" value="i = 0" style="rounded=0;whiteSpace=wrap;html=1;" vertex="1" parent="WIyWlLk6GJQsqaUBKTNV-1">
          <mxGeometry x="692.5" y="170" width="85" height="40" as="geometry" />
        </mxCell>
        <mxCell id="yujznxd2drrsmA3hHYga-54" value="" style="edgeStyle=orthogonalEdgeStyle;rounded=0;orthogonalLoop=1;jettySize=auto;html=1;" edge="1" parent="WIyWlLk6GJQsqaUBKTNV-1" source="yujznxd2drrsmA3hHYga-51" target="yujznxd2drrsmA3hHYga-53">
          <mxGeometry relative="1" as="geometry" />
        </mxCell>
        <mxCell id="yujznxd2drrsmA3hHYga-71" style="edgeStyle=orthogonalEdgeStyle;rounded=0;orthogonalLoop=1;jettySize=auto;html=1;entryX=0;entryY=0.5;entryDx=0;entryDy=0;" edge="1" parent="WIyWlLk6GJQsqaUBKTNV-1" source="yujznxd2drrsmA3hHYga-51" target="yujznxd2drrsmA3hHYga-70">
          <mxGeometry relative="1" as="geometry">
            <mxPoint x="630" y="976.6666666666669" as="targetPoint" />
            <Array as="points">
              <mxPoint x="580" y="290" />
              <mxPoint x="580" y="956" />
            </Array>
          </mxGeometry>
        </mxCell>
        <mxCell id="yujznxd2drrsmA3hHYga-74" value="False" style="edgeLabel;html=1;align=center;verticalAlign=middle;resizable=0;points=[];" vertex="1" connectable="0" parent="yujznxd2drrsmA3hHYga-71">
          <mxGeometry x="-0.8971" y="2" relative="1" as="geometry">
            <mxPoint x="1" as="offset" />
          </mxGeometry>
        </mxCell>
        <mxCell id="yujznxd2drrsmA3hHYga-51" value="i &amp;lt; setA.length" style="rhombus;whiteSpace=wrap;html=1;rounded=0;" vertex="1" parent="WIyWlLk6GJQsqaUBKTNV-1">
          <mxGeometry x="655" y="250" width="160" height="80" as="geometry" />
        </mxCell>
        <mxCell id="yujznxd2drrsmA3hHYga-56" value="" style="edgeStyle=orthogonalEdgeStyle;rounded=0;orthogonalLoop=1;jettySize=auto;html=1;" edge="1" parent="WIyWlLk6GJQsqaUBKTNV-1" source="yujznxd2drrsmA3hHYga-53" target="yujznxd2drrsmA3hHYga-55">
          <mxGeometry relative="1" as="geometry" />
        </mxCell>
        <mxCell id="yujznxd2drrsmA3hHYga-53" value="" style="ellipse;whiteSpace=wrap;html=1;aspect=fixed;" vertex="1" parent="WIyWlLk6GJQsqaUBKTNV-1">
          <mxGeometry x="711.5" y="360" width="47" height="47" as="geometry" />
        </mxCell>
        <mxCell id="yujznxd2drrsmA3hHYga-58" value="" style="edgeStyle=orthogonalEdgeStyle;rounded=0;orthogonalLoop=1;jettySize=auto;html=1;" edge="1" parent="WIyWlLk6GJQsqaUBKTNV-1" source="yujznxd2drrsmA3hHYga-55" target="yujznxd2drrsmA3hHYga-57">
          <mxGeometry relative="1" as="geometry" />
        </mxCell>
        <mxCell id="yujznxd2drrsmA3hHYga-55" value="int j = 0" style="rounded=0;whiteSpace=wrap;html=1;" vertex="1" parent="WIyWlLk6GJQsqaUBKTNV-1">
          <mxGeometry x="692.5" y="440" width="85" height="40" as="geometry" />
        </mxCell>
        <mxCell id="yujznxd2drrsmA3hHYga-60" value="" style="edgeStyle=orthogonalEdgeStyle;rounded=0;orthogonalLoop=1;jettySize=auto;html=1;" edge="1" parent="WIyWlLk6GJQsqaUBKTNV-1" source="yujznxd2drrsmA3hHYga-57" target="yujznxd2drrsmA3hHYga-59">
          <mxGeometry relative="1" as="geometry" />
        </mxCell>
        <mxCell id="yujznxd2drrsmA3hHYga-66" value="True" style="edgeLabel;html=1;align=center;verticalAlign=middle;resizable=0;points=[];" vertex="1" connectable="0" parent="yujznxd2drrsmA3hHYga-60">
          <mxGeometry x="-0.7684" y="3" relative="1" as="geometry">
            <mxPoint as="offset" />
          </mxGeometry>
        </mxCell>
        <mxCell id="yujznxd2drrsmA3hHYga-72" style="edgeStyle=orthogonalEdgeStyle;rounded=0;orthogonalLoop=1;jettySize=auto;html=1;entryX=0;entryY=0.5;entryDx=0;entryDy=0;" edge="1" parent="WIyWlLk6GJQsqaUBKTNV-1" source="yujznxd2drrsmA3hHYga-57" target="yujznxd2drrsmA3hHYga-67">
          <mxGeometry relative="1" as="geometry">
            <Array as="points">
              <mxPoint x="610" y="560" />
              <mxPoint x="610" y="856" />
            </Array>
          </mxGeometry>
        </mxCell>
        <mxCell id="yujznxd2drrsmA3hHYga-73" value="False" style="edgeLabel;html=1;align=center;verticalAlign=middle;resizable=0;points=[];" vertex="1" connectable="0" parent="yujznxd2drrsmA3hHYga-72">
          <mxGeometry x="-0.9111" y="-2" relative="1" as="geometry">
            <mxPoint as="offset" />
          </mxGeometry>
        </mxCell>
        <mxCell id="yujznxd2drrsmA3hHYga-57" value="i &amp;lt; setB.length" style="rhombus;whiteSpace=wrap;html=1;rounded=0;" vertex="1" parent="WIyWlLk6GJQsqaUBKTNV-1">
          <mxGeometry x="652.5" y="520" width="165" height="80" as="geometry" />
        </mxCell>
        <mxCell id="yujznxd2drrsmA3hHYga-62" value="" style="edgeStyle=orthogonalEdgeStyle;rounded=0;orthogonalLoop=1;jettySize=auto;html=1;" edge="1" parent="WIyWlLk6GJQsqaUBKTNV-1" source="yujznxd2drrsmA3hHYga-59" target="yujznxd2drrsmA3hHYga-61">
          <mxGeometry relative="1" as="geometry" />
        </mxCell>
        <mxCell id="yujznxd2drrsmA3hHYga-59" value="count ++" style="rounded=0;whiteSpace=wrap;html=1;" vertex="1" parent="WIyWlLk6GJQsqaUBKTNV-1">
          <mxGeometry x="689" y="630" width="92" height="50" as="geometry" />
        </mxCell>
        <mxCell id="yujznxd2drrsmA3hHYga-64" value="" style="edgeStyle=orthogonalEdgeStyle;rounded=0;orthogonalLoop=1;jettySize=auto;html=1;" edge="1" parent="WIyWlLk6GJQsqaUBKTNV-1" source="yujznxd2drrsmA3hHYga-61" target="yujznxd2drrsmA3hHYga-63">
          <mxGeometry relative="1" as="geometry" />
        </mxCell>
        <mxCell id="yujznxd2drrsmA3hHYga-68" value="" style="edgeStyle=orthogonalEdgeStyle;rounded=0;orthogonalLoop=1;jettySize=auto;html=1;" edge="1" parent="WIyWlLk6GJQsqaUBKTNV-1" source="yujznxd2drrsmA3hHYga-61" target="yujznxd2drrsmA3hHYga-67">
          <mxGeometry relative="1" as="geometry" />
        </mxCell>
        <mxCell id="yujznxd2drrsmA3hHYga-61" value="Kombinasi ke [icount] : setA[i] dan setB[j]" style="shape=parallelogram;perimeter=parallelogramPerimeter;whiteSpace=wrap;html=1;fixedSize=1;rounded=0;" vertex="1" parent="WIyWlLk6GJQsqaUBKTNV-1">
          <mxGeometry x="626.5" y="710" width="217" height="79" as="geometry" />
        </mxCell>
        <mxCell id="yujznxd2drrsmA3hHYga-65" style="edgeStyle=orthogonalEdgeStyle;rounded=0;orthogonalLoop=1;jettySize=auto;html=1;entryX=1;entryY=0.5;entryDx=0;entryDy=0;" edge="1" parent="WIyWlLk6GJQsqaUBKTNV-1" source="yujznxd2drrsmA3hHYga-63" target="yujznxd2drrsmA3hHYga-53">
          <mxGeometry relative="1" as="geometry">
            <mxPoint x="779.9999999999998" y="370" as="targetPoint" />
            <Array as="points">
              <mxPoint x="940" y="384" />
            </Array>
          </mxGeometry>
        </mxCell>
        <mxCell id="yujznxd2drrsmA3hHYga-63" value="j++" style="whiteSpace=wrap;html=1;rounded=0;" vertex="1" parent="WIyWlLk6GJQsqaUBKTNV-1">
          <mxGeometry x="890" y="719.75" width="100" height="59.5" as="geometry" />
        </mxCell>
        <mxCell id="yujznxd2drrsmA3hHYga-69" style="edgeStyle=orthogonalEdgeStyle;rounded=0;orthogonalLoop=1;jettySize=auto;html=1;entryX=1;entryY=0.5;entryDx=0;entryDy=0;" edge="1" parent="WIyWlLk6GJQsqaUBKTNV-1" source="yujznxd2drrsmA3hHYga-67" target="yujznxd2drrsmA3hHYga-47">
          <mxGeometry relative="1" as="geometry">
            <mxPoint x="919.9999999999998" y="510" as="targetPoint" />
            <Array as="points">
              <mxPoint x="1090" y="856" />
              <mxPoint x="1090" y="115" />
            </Array>
          </mxGeometry>
        </mxCell>
        <mxCell id="yujznxd2drrsmA3hHYga-67" value="i++" style="whiteSpace=wrap;html=1;rounded=0;" vertex="1" parent="WIyWlLk6GJQsqaUBKTNV-1">
          <mxGeometry x="687.5" y="831" width="95" height="50" as="geometry" />
        </mxCell>
        <mxCell id="yujznxd2drrsmA3hHYga-70" value="End" style="ellipse;whiteSpace=wrap;html=1;" vertex="1" parent="WIyWlLk6GJQsqaUBKTNV-1">
          <mxGeometry x="675" y="916" width="120" height="80" as="geometry" />
        </mxCell>
      </root>
    </mxGraphModel>
  </diagram>
</mxfile>
